<svg width="74" height="13" viewBox="0 0 74 13" fill="none" xmlns="http://www.w3.org/2000/svg">
<path d="M7.08 5.40001V0.880005H4.96V5.40001L0.72 3.8L0 5.72001L4.24 7.24001L1.64 10.88L3.44 12.12L6.04 8.28L8.8 12.12L10.44 10.88L7.8 7.24001L12.16 5.72001L11.36 3.8L7.08 5.40001Z" fill="white"/>
<path d="M22.5425 5.40001V0.880005H20.4225V5.40001L16.1825 3.8L15.4625 5.72001L19.7025 7.24001L17.1025 10.88L18.9025 12.12L21.5025 8.28L24.2625 12.12L25.9025 10.88L23.2625 7.24001L27.6225 5.72001L26.8225 3.8L22.5425 5.40001Z" fill="white"/>
<path d="M38.005 5.40001V0.880005H35.885V5.40001L31.645 3.8L30.925 5.72001L35.165 7.24001L32.565 10.88L34.365 12.12L36.965 8.28L39.725 12.12L41.365 10.88L38.725 7.24001L43.085 5.72001L42.285 3.8L38.005 5.40001Z" fill="white"/>
<path d="M53.4675 5.40001V0.880005H51.3475V5.40001L47.1075 3.8L46.3875 5.72001L50.6275 7.24001L48.0275 10.88L49.8275 12.12L52.4275 8.28L55.1875 12.12L56.8275 10.88L54.1875 7.24001L58.5475 5.72001L57.7475 3.8L53.4675 5.40001Z" fill="white"/>
<path d="M68.93 5.40001V0.880005H66.81V5.40001L62.57 3.8L61.85 5.72001L66.09 7.24001L63.49 10.88L65.29 12.12L67.89 8.28L70.65 12.12L72.29 10.88L69.65 7.24001L74.01 5.72001L73.21 3.8L68.93 5.40001Z" fill="white"/>
</svg>
